# xmcd
#
# Track frame offsets: 
#        150
#        20079
#        35077
#        51113
#        66825
#        83141
#        100416
#        119158
#        137607
#        157486
#        175789
#        197057
#        212634
#        231822
#        251322
#
# Disc length: 3574 seconds
#
# Revision: 0
# Processed by: cddbd v1.5.1PL2 Copyright (c) Steve Scherf et al.
# Submitted via: ExactAudioCopy v0.95b3
#
DISCID=dc0df40f
DTITLE=草蜢 - 滾石香港黃金十年 - 草蜢精選
DYEAR=2003
DGENRE=Pop
TTITLE0=失樂園
TTITLE1=小時候
TTITLE2=愛拼才會贏
TTITLE3=Ba Ba Ba 不屬於
TTITLE4=和林青霞演戲
TTITLE5=等等
TTITLE6=二人世界
TTITLE7=傷城故事
TTITLE8=遍體鱗傷
TTITLE9=愛得小心
TTITLE10=親陌愛人
TTITLE11=二人迷失世界
TTITLE12=另有風光
TTITLE13=盡興
TTITLE14=站出來
EXTD=
EXTT0=
EXTT1=
EXTT2=
EXTT3=
EXTT4=
EXTT5=
EXTT6=
EXTT7=
EXTT8=
EXTT9=
EXTT10=
EXTT11=
EXTT12=
EXTT13=
EXTT14=
PLAYORDER=
